<?xml version="1.0" encoding="utf-8"?>
<!-- Generator: Adobe Illustrator 26.3.1, SVG Export Plug-In . SVG Version: 6.00 Build 0)  -->
<svg version="1.1" id="Layer_1" xmlns="http://www.w3.org/2000/svg" xmlns:xlink="http://www.w3.org/1999/xlink" x="0px" y="0px"
	 viewBox="0 0 330.8 149.4" style="enable-background:new 0 0 330.8 149.4;" xml:space="preserve">
<style type="text/css">
	.st0{fill:#FFFFFF;}
</style>
<path class="st0" d="M114.4,12.9L57.4,144.4c-1.3,3-4.3,5-7.6,5H25.3c-6.1,0-10.1-6.4-7.5-11.9l17.9-37.6c1-2.2,1.1-4.7,0.1-6.9
	L0.7,12.9C-1.7,7.4,2.3,1.2,8.3,1.2h25.4c3.5,0,6.6,2.2,7.8,5.4l8.8,23.6c2.7,7.3,13.1,7.2,15.6-0.2l8.1-23.3
	c1.2-3.3,4.3-5.6,7.9-5.6h24.9C112.7,1.2,116.7,7.4,114.4,12.9z"/>
<path class="st0" d="M138.8,98c-7.3-3.1-13.1-7.3-17.3-12.8c-1.6-2.1-3-4.3-4.1-6.6c-2.6-5.5,1.4-11.8,7.5-11.8h21.4
	c2.9,0,5.6,1.4,7.1,3.9c0.6,1.1,1.5,2,2.5,2.7c2.1,1.4,4.7,2.1,7.9,2.1c2,0,3.6-0.4,4.8-1.3c1.2-0.9,1.8-2,1.8-3.3
	c0-2.2-1.2-3.8-3.7-4.8c-2.5-0.9-6.7-2-12.6-3.2c-7.2-1.4-13.2-3-17.9-4.6c-4.7-1.7-8.8-4.5-12.3-8.5c-3.5-4-5.2-9.6-5.2-16.7
	c0-6.2,1.6-11.8,4.9-16.8c3.3-5,8.1-9,14.5-11.9c6.4-2.9,14.1-4.4,23.3-4.4c13.5,0,24.1,3.3,31.7,9.9c4.7,4.1,8.2,8.9,10.6,14.5
	c2.3,5.4-1.8,11.4-7.7,11.4h-18.8c-2.9,0-5.4-1.6-6.9-4c-0.6-0.9-1.3-1.7-2.1-2.3c-1.9-1.5-4.4-2.2-7.6-2.2c-2,0-3.6,0.4-4.6,1.2
	c-1.1,0.8-1.6,1.9-1.6,3.5c0,2,1.2,3.5,3.7,4.5c2.5,1,6.5,2,11.9,3.1c7.2,1.4,13.3,3,18.3,4.8c5,1.8,9.3,4.8,13,9.1
	c3.7,4.3,5.5,10.3,5.5,17.9c0,5.9-1.7,11.3-5.2,16c-3.4,4.7-8.4,8.5-14.8,11.2c-6.5,2.7-14,4.1-22.6,4.1
	C154.5,102.7,146.1,101.1,138.8,98z"/>
<path class="st0" d="M322.3,0.1h-85.9c-4.7,0-8.5,3.8-8.5,8.5v85.9c0,4.7,3.8,8.5,8.5,8.5h85.9c4.7,0,8.5-3.8,8.5-8.5V8.6
	C330.8,3.9,327,0.1,322.3,0.1z M291.3,55.7c0,5.3-1.1,9.9-3.3,13.7c-2.2,3.8-5.3,6.6-9.1,8.5c-3.9,1.9-8.2,2.9-12.9,2.9
	c-4.8,0-9-1-12.7-2.9c-3.7-1.9-6.5-4.7-8.6-8.5c-2.1-3.8-3.1-8.3-3.1-13.7V24.1h17.5v31.7c0,2.6,0.6,4.6,1.7,6.2
	c1.1,1.5,3,2.3,5.5,2.3c2.5,0,4.4-0.8,5.6-2.3c1.2-1.5,1.8-3.6,1.8-6.2V24.1h17.5V55.7z M316.6,80.3H299V24.1h17.6V80.3z"/>
</svg>
